<?xml version="1.0" encoding="UTF-8"?>
<svg xmlns="http://www.w3.org/2000/svg" xmlns:xlink="http://www.w3.org/1999/xlink" viewBox="0 0 2000 2000">
  <rect width="2000" height="2000" fill="#000000"/>
  <defs xmlns="http://www.w3.org/2000/svg">
    <style>
      .cls-1 {
        fill: #037737;
      }

      .cls-2 {
        fill: url(#linear-gradient);
      }
    </style>
    <linearGradient id="linear-gradient" x1="-146.12" y1="406.6" x2="1328.05" y2="1196.71" gradientUnits="userSpaceOnUse">
      <stop offset="0" stop-color="#eee393" />
      <stop offset="1" stop-color="#94672b" />
    </linearGradient>
  </defs>
  
  <g xmlns="http://www.w3.org/2000/svg">
    <path class="cls-1" d="m1880.83,912.05c-3.18-.36-6.09-.68-9-.97h0c-39.37-3.79-65.23-25.99-74.77-64.2-7.55-30.26-8.52-62.87-9.46-94.41-.58-19.49-.92-39.45-1.25-58.74v-.78c-.5-29-1.01-58.99-2.36-88.68-1.15-25.42-3.34-58.89-10.05-92.43-13.59-67.9-54.4-116.3-118.02-139.97-29.14-10.83-57.71-11.78-85.34-12.7-12.56-.42-24.87-.32-36.77-.21-5.22.05-10.45.09-15.71.09h-35.03v165.65l32.62,2.24c6.71.47,13.37.86,20.13,1.26,14.28.85,27.77,1.65,41.05,3.1,20.2,2.2,23.95,10.41,26.26,19.37,1.87,7.23,3.81,15.59,4.04,22.84,1.03,32.69,1.26,66.17,1.35,94.61l.03,18.32c.03,49.35.06,100.38,8.27,151.56,4.73,29.46,12.13,63.84,31.24,95.53,14.93,24.76,34.34,45.94,59.15,64.51-39.11,29.48-66.24,69.89-80.69,120.27-9.38,32.68-14.08,68.02-14.76,111.22-.4,25.01-.65,50.02-.9,75.03l-.02,1.98c-.27,26.41-.54,52.81-.99,79.22-.31,18.75-1.46,40.71-7.55,61.37-3.2,10.84-8.4,13.2-13.45,14.68-9.71,2.85-19.07,4.76-27.83,5.66-9.45.98-19.31,1.28-30.03,1.61-4.78.15-9.57.29-14.36.5l-33.5,1.47v170.13l36.63-1.67c9.43-.43,18.81-.69,28.43-.95,21.57-.6,43.88-1.21,66.25-3.87,59.25-7.01,106.16-37.18,135.64-87.26,18.99-32.27,29.58-68.81,32.37-111.69,2.22-34.28,2.77-68.8,3.3-102.19.12-7.91.25-15.82.4-23.72.13-7.12.24-14.24.35-21.37.67-44.63,1.3-86.78,8.28-128.54,6.47-38.69,29.49-64.27,64.81-72.01,5.05-1.11,10.84-1.81,16.98-2.55,3.37-.42,6.74-.83,10.09-1.3l30.1-4.28v-163.75l-35.92-3.93Z" />
    <path class="cls-1" d="m382.16,365.18c-47.3,5.1-87.63,27.17-116.64,63.84-28.58,36.12-44.21,80.02-47.8,134.2-2.26,34.17-2.75,68.58-3.23,102-.17,12.35-.35,24.7-.62,37.05l-.32,16.26c-.81,42.37-1.57,82.39-8.28,121.95-6.52,38.38-29.41,63.72-64.44,71.36-5.01,1.1-10.84,1.78-17,2.52-3.44.41-6.9.82-10.36,1.3l-30.19,4.21v163.82l36.37,3.99c3.2.35,6.19.66,9.15,1.02,36.74,4.3,58.43,21.34,70.34,55.25,6.98,19.88,9.12,41.48,10.18,67.82,1.06,26.15,1.65,52.92,2.21,78.95.37,17.06.75,34.13,1.25,51.19.16,5.39.3,10.78.44,16.17,1.11,41.95,2.26,85.34,10.94,128.91,15.5,77.81,71.59,134.51,146.36,147.96,19.43,3.49,38.43,4.28,56.86,5.04,5.67.23,11.33.47,16.96.78,4.52.26,9.24.37,14.85.37,3.52,0,6.98-.05,10.4-.1h.7c3.44-.06,6.89-.11,10.38-.11h35.03v-165.91l-32.64-2.24c-6.58-.45-13.11-.83-19.82-1.22-14.07-.83-27.36-1.61-40.39-3.07-19.68-2.23-22.09-8.74-23.53-12.64-3.07-8.29-7.19-20.53-7.53-31.01-1.32-40.29-1.46-81.56-1.6-121.49l-.08-21.31c-.24-53.8-3.94-97.83-11.64-138.56-11.44-60.48-40.31-108.38-85.86-142.53,40.3-29.81,67.52-70.36,80.98-120.67,11.62-43.41,13.93-86.41,14.65-119.02.6-27.4.88-55.79,1.14-80.84.23-22.32.46-44.65.87-66.97.34-18.48,1.49-40.17,7.46-60.82,2.59-8.92,6.34-12.89,14.36-15.19,9.25-2.65,17.88-4.38,25.64-5.14,9.71-.95,19.66-1.27,30.19-1.61,4.81-.16,9.64-.31,14.48-.53l33.47-1.49v-162.85s-110.71-3.13-133.69-.65Z" />
  </g>
  
  <polygon xmlns="http://www.w3.org/2000/svg" class="cls-2" points="1456.53 748.15 1326.54 673.1 1326.54 762.57 1243.43 762.57 1103.93 762.57 1024.46 1172.86 926.51 768.41 778.79 768.41 680.84 1172.86 608.95 768.41 462.03 768.41 595.53 1326.9 762.99 1326.9 853.04 953.26 942.31 1326.9 1109.77 1326.9 1213.19 890.22 1326.54 890.22 1326.54 973.28 1456.53 898.24 1586.51 823.19 1456.53 748.15" />

</svg>
