<?xml version="1.0" encoding="UTF-8"?>
<svg id="Layer_1" data-name="Layer 1" xmlns="http://www.w3.org/2000/svg" xmlns:xlink="http://www.w3.org/1999/xlink" viewBox="0 0 2000 2000">
  <defs>
    <style>
      .cls-1 {
        fill: url(#linear-gradient-2);
      }

      .cls-2 {
        fill: #037737;
      }

      .cls-3 {
        fill: url(#linear-gradient);
      }
    </style>
    <linearGradient id="linear-gradient" x1="-110.47" y1="1043.61" x2="1754.5" y2="1611.68" gradientUnits="userSpaceOnUse">
      <stop offset="0" stop-color="#eee393"/>
      <stop offset="1" stop-color="#94672b"/>
    </linearGradient>
    <linearGradient id="linear-gradient-2" x1="185.15" y1="308.35" x2="1233.23" y2="870.09" xlink:href="#linear-gradient"/>
  </defs>
  <g>
    <path class="cls-3" d="m178.56,1258.33h73l41.44,169.3,56.43-169.3h72.61l56.04,169.3,41.43-169.3h73.01l-78.53,271.11h-67.88l-60.38-171.66-60.38,171.66h-67.88l-78.92-271.11Zm604.98,271.11l-59.58-84.85h-33.15v84.85h-67.48v-271.11h125.89c59.58,0,103,38.28,103,93.13,0,39.47-22.5,70.64-57.62,84.85l65.51,93.13h-76.56Zm-92.73-146.4h52.09c23.28,0,39.85-12.63,39.85-31.57s-16.57-31.57-39.85-31.57h-52.09v63.14Zm205.21-124.7h67.48v271.11h-67.48v-271.11Zm243.09,115.63h123.52v113.25c-27.63,29.6-69.06,46.96-110.89,46.96-80.11,0-147.19-64.32-147.19-140.48s67.08-140.09,147.19-140.09c41.83,0,83.27,17.36,110.89,46.57l-49.33,43.81c-14.6-18.16-38.28-29.2-61.56-29.2-42.22,0-78.13,36.3-78.13,78.92s35.91,79.32,78.13,79.32c15.79,0,31.97-5.13,45.38-14.2v-33.94h-58.01v-50.91Zm414.37-115.63v271.11h-67.48v-108.13h-110.89v108.13h-67.48v-271.11h67.48v102.6h110.89v-102.6h67.48Zm118.4,60.38h-82.48v-60.38h232.04v60.38h-82.08v210.73h-67.48v-210.73Z"/>
    <g>
      <path class="cls-2" d="m278.15,1625.19v22.62h61.79v28.13h-61.79v47.45h-31.45v-126.34h99.49v28.14h-68.04Z"/>
      <path class="cls-2" d="m415.67,1668.03v-70.98h31.45v69.51c0,17.84,11.4,30.53,27.21,30.53s27.4-12.68,27.4-30.53v-69.51h31.26v70.98c0,33.84-24.09,57.56-58.66,57.56s-58.66-23.73-58.66-57.56Z"/>
      <path class="cls-2" d="m607.81,1597.05h31.45l54.98,74.67v-74.67h31.45v126.34h-31.45l-54.98-74.66v74.66h-31.45v-126.34Z"/>
      <path class="cls-2" d="m796.45,1660.13c0-35.49,31.08-65.28,67.86-65.28,19.68,0,37.7,8.46,50.2,21.7l-22.99,20.41c-6.62-8.28-16.55-13.61-27.21-13.61-19.31,0-35.68,16.92-35.68,36.78s16.36,36.96,35.68,36.96c10.85,0,20.6-5.33,27.4-13.6l22.81,20.23c-12.5,13.42-30.53,21.89-50.2,21.89-36.78,0-67.86-29.98-67.86-65.47Z"/>
      <path class="cls-2" d="m1013.24,1625.19h-38.44v-28.14h108.13v28.14h-38.25v98.2h-31.45v-98.2Z"/>
      <path class="cls-2" d="m1151.68,1597.05h31.45v126.34h-31.45v-126.34Z"/>
      <path class="cls-2" d="m1253.72,1660.13c0-35.49,31.08-65.28,67.86-65.28s68.04,29.79,68.04,65.28-31.08,65.47-68.04,65.47-67.86-29.98-67.86-65.47Zm103.53,0c0-19.86-16.36-36.78-35.67-36.78s-35.68,16.92-35.68,36.78,16.36,36.96,35.68,36.96,35.67-16.92,35.67-36.96Z"/>
      <path class="cls-2" d="m1460.02,1597.05h31.45l54.98,74.67v-74.67h31.45v126.34h-31.45l-54.98-74.66v74.66h-31.45v-126.34Z"/>
      <path class="cls-2" d="m1644.62,1704.44l17.65-21.15c12.32,10.12,26.11,16,41.56,16,11.77,0,17.84-4.78,17.84-11.59,0-7.54-5.88-9.19-24.27-13.61-27.04-6.07-47.08-13.42-47.08-38.8s19.49-40.45,48.36-40.45c21.15,0,37.7,6.07,51.12,17.28l-16,22.44c-11.59-8.83-24.28-13.43-36.05-13.43-10.11,0-15.81,4.78-15.81,11.04,0,7.72,6.07,10.3,24.83,14.34,28.32,6.07,46.53,14.16,46.53,37.89,0,25.37-19.31,41.19-50.58,41.19-22.43,0-42.85-7.36-58.11-21.15Z"/>
    </g>
  </g>
  <g>
    <g>
      <path class="cls-2" d="m1626.24,667.71c-2.26-.26-4.33-.49-6.4-.69h0c-27.99-2.7-46.38-18.48-53.16-45.64-5.37-21.51-6.06-44.7-6.73-67.12-.41-13.86-.65-28.04-.89-41.77v-.56c-.36-20.62-.72-41.94-1.68-63.05-.82-18.07-2.38-41.87-7.14-65.72-9.66-48.28-38.67-82.69-83.91-99.51-20.72-7.7-41.03-8.38-60.67-9.03-8.93-.3-17.68-.23-26.14-.15-3.71.03-7.43.06-11.17.06h-24.91v117.77l23.19,1.6c4.77.33,9.5.61,14.31.89,10.15.6,19.74,1.17,29.18,2.2,14.36,1.56,17.03,7.4,18.67,13.77,1.33,5.14,2.71,11.08,2.87,16.24.73,23.24.89,47.05.96,67.26l.02,13.03c.02,35.09.04,71.37,5.88,107.75,3.36,20.94,8.62,45.39,22.21,67.92,10.61,17.6,24.41,32.66,42.05,45.86-27.81,20.96-47.09,49.69-57.37,85.5-6.67,23.23-10.01,48.36-10.49,79.07-.28,17.78-.46,35.56-.64,53.34v1.41c-.21,18.78-.4,37.55-.72,56.33-.22,13.33-1.04,28.94-5.37,43.63-2.27,7.71-5.97,9.38-9.56,10.44-6.9,2.03-13.56,3.38-19.79,4.02-6.72.69-13.73.91-21.35,1.14-3.4.1-6.8.21-10.21.36l-23.82,1.04v120.96l26.04-1.18c6.71-.3,13.38-.49,20.21-.68,15.34-.42,31.2-.86,47.1-2.75,42.13-4.98,75.47-26.44,96.44-62.04,13.5-22.94,21.03-48.92,23.01-79.41,1.58-24.37,1.97-48.92,2.35-72.65.09-5.62.18-11.25.28-16.86.09-5.06.17-10.13.25-15.19.47-31.73.92-61.7,5.89-91.39,4.6-27.51,20.97-45.69,46.08-51.2,3.59-.79,7.71-1.29,12.07-1.82,2.4-.3,4.79-.59,7.18-.92l21.4-3.05v-116.42l-25.54-2.8Z"/>
      <path class="cls-2" d="m560.74,278.9c-33.63,3.62-62.31,19.32-82.93,45.39-20.32,25.68-31.43,56.89-33.99,95.42-1.61,24.3-1.96,48.76-2.3,72.52-.12,8.78-.25,17.56-.44,26.34l-.23,11.56c-.57,30.12-1.12,58.58-5.89,86.7-4.63,27.29-20.91,45.3-45.82,50.73-3.56.78-7.7,1.27-12.09,1.79-2.44.29-4.9.58-7.37.93l-21.47,2.99v116.47l25.86,2.84c2.28.25,4.4.47,6.51.72,26.12,3.06,41.54,15.17,50.01,39.28,4.96,14.13,6.49,29.49,7.24,48.22.76,18.59,1.17,37.63,1.57,56.13.26,12.13.53,24.26.89,36.39.11,3.83.21,7.66.31,11.5.79,29.83,1.6,60.67,7.78,91.65,11.02,55.32,50.9,95.63,104.06,105.19,13.81,2.48,27.32,3.04,40.43,3.59,4.03.16,8.06.33,12.06.56,3.21.18,6.57.27,10.56.27,2.5,0,4.96-.04,7.4-.07h.5c2.44-.04,4.9-.08,7.38-.08h24.91v-117.96l-23.2-1.6c-4.68-.32-9.32-.59-14.09-.87-10-.59-19.45-1.14-28.72-2.19-13.99-1.58-15.71-6.22-16.73-8.99-2.18-5.9-5.11-14.6-5.35-22.05-.94-28.65-1.04-57.99-1.14-86.38l-.06-15.15c-.17-38.25-2.8-69.55-8.28-98.51-8.14-43-28.66-77.05-61.05-101.34,28.65-21.2,48.01-50.02,57.58-85.79,8.26-30.87,9.9-61.43,10.41-84.62.42-19.48.63-39.67.81-57.47.16-15.87.33-31.74.62-47.61.24-13.14,1.06-28.56,5.31-43.24,1.84-6.34,4.51-9.17,10.21-10.8,6.58-1.89,12.71-3.11,18.23-3.65,6.9-.67,13.98-.9,21.46-1.15,3.42-.11,6.86-.22,10.3-.38l23.8-1.06v-115.78s-78.71-2.22-95.05-.46Z"/>
    </g>
    <polygon class="cls-1" points="1324.57 551.18 1232.16 497.83 1232.16 561.44 1173.07 561.44 1073.89 561.44 1017.39 853.13 947.75 565.59 842.73 565.59 773.09 853.13 721.98 565.59 617.52 565.59 712.43 962.65 831.49 962.65 895.52 697.01 958.98 962.65 1078.04 962.65 1151.57 652.19 1232.16 652.19 1232.16 711.24 1324.57 657.89 1416.99 604.53 1324.57 551.18"/>
  </g>
</svg>